PathFileType	4	(X/Y/Z)	C:/Users/beibeiliu/ov580/test_trc/capture2\sequence.10_training_dense_left.trc
DataRate	CameraRate	NumFrames	NumMarkers	Units	OrigDataRate	OrigDataStartFrame	OrigNumFrames
120	120	11	19	mm	120	175	349
Frame#	Time	ThumbCMC			ThumbMCP			ThumbIP			ThumbTip			IndexMCP			IndexPIP			IndexTip			MiddleMCP			MiddlePIP			MiddleTip			RingMCP			RingPIP			RingTip			PinkyMCP			PinkyPIP			PinkyTip			BackHand1			BackHand2			BackHand3	
		X0	Y0	Z0	X1	Y1	Z1	X2	Y2	Z2	X3	Y3	Z3	X4	Y4	Z4	X5	Y5	Z5	X6	Y6	Z6	X7	Y7	Z7	X8	Y8	Z8	X9	Y9	Z9	X10	Y10	Z10	X11	Y11	Z11	X12	Y12	Z12	X13	Y13	Z13	X14	Y14	Z14	X15	Y15	Z15	X16	Y16	Z16	X17	Y17	Z17	X18	Y18	Z18	
174	1.45	-167.735	69.0751	-47.4628	-148.667	79.3335	-67.8681	-136.462	89.5673	-92.6792	-127.185	77.7979	-111.273	-158.986	60.2627	-114.187	-126.023	62.7266	-112.313	-129.748	62.9588	-78.7601	-145.471	36.6679	-114.418	-116.975	47.41	-101.544	-129.081	49.6191	-70.2246	-134.793	20.5237	-106.989	-115.555	37.8542	-90.6762	-133.894	40.361	-63.8226	-131.84	7.12498	-95.8072	-115.296	25.9525	-81.244	-135.187	31.2459	-55.8677	-179.614	7.68453	-71.0487	-185.082	10.0723	-39.3067	-191.485	41.926	-56.0858	
175	1.45833	-168.354	69.3597	-43.8833	-147.552	83.8971	-67.2729	-135.716	86.661	-90.4845	-123.658	81.3811	-112.396	-156.207	57.7295	-113.87	-127.526	67.6629	-112.499	-131.312	64.9927	-76.9269	-145.06	37.2949	-114.582	-117.495	46.4317	-103.579	-133.721	50.6108	-67.0751	-136.657	23.3697	-105.858	-117.206	39.1087	-88.5362	-133.876	41.5303	-63.0782	-131.239	7.99979	-95.8638	-116.437	24.9946	-78.2795	-137.651	31.9956	-54.1238	-180.069	10.6497	-66.0587	-185.007	12.9226	-38.9306	-191.675	41.9868	-54.265	
176	1.46667	-167.359	70.6635	-47.8701	-146.219	83.9957	-66.5379	-134.008	88.0939	-88.9947	-123.021	78.9292	-110.725	-157.028	59.3705	-113.093	-126.925	64.4194	-106.032	-133.782	62.2968	-76.3774	-145.879	39.1787	-113.961	-119.917	50.1087	-103.077	-134.61	53.1325	-65.6886	-137.342	23.8175	-105.183	-115.575	35.7312	-87.4986	-139.29	41.3231	-60.7429	-135.225	12.8158	-95.5602	-117.691	25.8123	-73.7048	-139.897	30.0175	-52.6789	-180.41	9.15138	-67.6894	-185.206	11.042	-38.734	-192.757	42.859	-57.2487	
177	1.475	-168.143	73.7742	-45.8076	-144.773	84.1675	-66.5732	-133.66	87.2454	-87.7146	-122.709	71.4759	-111.324	-155.874	64.2085	-115.114	-127.521	66.4506	-106.784	-139.639	63.6184	-74.206	-148.947	40.1088	-112.343	-118.958	50.4321	-98.9395	-133.131	50.6292	-67.1084	-138.385	28.6845	-106.201	-116.719	36.8751	-87.7362	-139.955	40.9877	-59.4905	-135.922	7.96657	-94.3297	-117.416	24.7111	-75.2604	-141.704	29.1875	-51.7447	-180.585	9.38658	-71.548	-184.157	9.25595	-35.7909	-193.331	40.612	-54.4277	
178	1.48333	-165.541	74.2273	-46.0408	-143.434	78.6523	-67.3727	-128.682	86.7139	-92.0642	-118.672	70.4861	-111.177	-158.087	64.3823	-112.248	-127.085	65.752	-107.45	-141.277	64.522	-73.3545	-146.302	45.82	-115.202	-119.572	53.5072	-99.0891	-133.439	53.06	-66.8743	-139.487	28.802	-105.663	-115.619	36.5093	-84.0977	-137.861	42.5638	-59.4511	-132.615	11.1225	-95.4016	-118.259	26.3713	-77.7551	-140.092	32.2012	-53.5512	-179.159	9.31162	-70.0922	-186.173	13.9879	-39.591	-193.322	44.2755	-54.5571	
179	1.49167	-163.843	72.9952	-43.7283	-140.469	80.6937	-63.3482	-126.293	80.2653	-90.6727	-117.906	65.8534	-107.207	-155.182	63.331	-115.365	-128.831	70.7082	-110.794	-137.059	61.6066	-77.293	-149.201	45.0466	-113.386	-120.008	52.862	-103.64	-130.943	51.2998	-67.7396	-137.767	24.6066	-104.21	-116.485	38.5897	-87.5247	-137.394	41.2784	-58.535	-131.483	11.9688	-95.0707	-118.292	28.7308	-74.8351	-138.991	30.657	-52.0154	-179.281	10.1224	-67.2479	-183.808	15.0796	-35.8299	-191.591	42.6839	-52.0691	
180	1.5	-163.593	71.5473	-45.6745	-138.711	80.3297	-63.7298	-122.851	79.9943	-94.0412	-115.782	58.5264	-109.955	-159.931	59.1633	-113.526	-129.104	66.9491	-111.008	-135.056	67.6694	-78.3106	-146.502	46.816	-115.016	-118.914	54.7983	-101.108	-131.45	53.2091	-66.9213	-134.202	27.5559	-106.338	-116.302	41.0165	-89.1311	-136.13	41.2828	-58.0893	-133.417	16.2447	-94.8603	-117.258	28.9514	-75.787	-137.315	31.3497	-51.0868	-180.851	14.4411	-70.0826	-185.395	11.4748	-40.4893	-189.096	40.646	-52.8709	
181	1.50833	-163.012	69.7486	-45.8075	-137.481	81.5559	-68.234	-124.174	78.9461	-91.1147	-117.768	54.5254	-108.446	-158.045	62.5088	-117.428	-130.629	67.1762	-117.699	-128.171	71.0128	-80.9687	-147.227	44.3174	-114.794	-119.49	55.0477	-106.544	-128.739	51.6455	-66.9471	-137.015	25.3992	-104.003	-115.046	40.717	-83.5454	-133.287	41.1899	-58.7755	-132.48	10.3872	-93.8413	-118.067	30.4823	-74.3424	-138.503	30.0555	-49.3597	-180.03	14.0954	-69.6657	-183.102	11.749	-36.2439	-189.143	40.3686	-57.1086	
182	1.51667	-164.331	68.8298	-39.7928	-147.447	80.6907	-68.9016	-137.762	72.0254	-96.562	-132.888	46.6728	-104.74	-156.254	62.4878	-113.597	-126.124	68.1252	-118.215	-113.247	70.7832	-83.6617	-145.931	46.0056	-115.338	-113.73	52.5956	-104.405	-119.37	51.8051	-71.6078	-133.444	32.4395	-103.987	-113.301	39.9639	-83.0268	-136.062	38.5366	-55.8474	-130.111	13.8838	-93.9684	-113.02	23.4796	-72.5748	-138.575	27.525	-49.5124	-177.491	12.8157	-69.1351	-184.352	13.4376	-36.5255	-188.043	42.7942	-53.6817	
183	1.525	-164.999	67.9122	-41.337	-147.182	81.0088	-68.2192	-138.587	73.2656	-95.0036	-134.079	43.94	-100.187	-154.192	59.1033	-114.729	-122.556	70.465	-116.271	-112.663	72.9899	-86.806	-146.617	41.9038	-113.939	-113.251	52.3167	-104.828	-122.432	52.9446	-69.7044	-133.616	28.7799	-103.083	-111.123	37.9136	-81.727	-132.478	40.8431	-57.4268	-130.411	11.5606	-93.3464	-115.208	28.1889	-72.981	-134.216	31.9802	-48.8519	-178.306	15.6449	-66.7326	-183.729	10.1926	-37.0586	-188.174	41.847	-51.6204	
184	1.53333	-162.816	71.1414	-46.2134	-137.145	80.7602	-65.5789	-124.796	76.7265	-90.0296	-118.379	58.7575	-105.171	-159.978	58.2243	-114.823	-131.945	67.196	-121.341	-122.796	68.3659	-88.7231	-143.311	42.6775	-115.817	-117.789	55.2834	-107.562	-126.687	55.3569	-70.9611	-131.182	28.5188	-104.757	-113.099	41.2253	-85.3179	-134.143	41.553	-56.3361	-128.808	14.6535	-93.5793	-114.733	31.2541	-73.7599	-134.084	30.4944	-48.6686	-177.54	12.9663	-67.812	-180.961	13.5375	-35.3206	-188.605	42.2629	-54.6371	
